<?xml version="1.0" encoding="UTF-8" standalone="no"?>
<!-- Created with Inkscape (http://www.inkscape.org/) -->

<svg
   xmlns:osb="http://www.openswatchbook.org/uri/2009/osb"
   xmlns:dc="http://purl.org/dc/elements/1.1/"
   xmlns:cc="http://creativecommons.org/ns#"
   xmlns:rdf="http://www.w3.org/1999/02/22-rdf-syntax-ns#"
   xmlns:svg="http://www.w3.org/2000/svg"
   xmlns="http://www.w3.org/2000/svg"
   xmlns:xlink="http://www.w3.org/1999/xlink"
   xmlns:sodipodi="http://sodipodi.sourceforge.net/DTD/sodipodi-0.dtd"
   xmlns:inkscape="http://www.inkscape.org/namespaces/inkscape"
   width="24"
   height="32"
   id="svg2"
   version="1.1"
   inkscape:version="0.48.4 r9939"
   sodipodi:docname="markers.svg"
   inkscape:export-filename="/home/sr/git/ch.gpschase/GPS chase - App/res/drawable/logo.png"
   inkscape:export-xdpi="105.88109"
   inkscape:export-ydpi="105.88109">
  <defs
     id="defs4">
    <marker
       inkscape:stockid="Arrow2Mend"
       orient="auto"
       refY="0.0"
       refX="0.0"
       id="Arrow2Mend"
       style="overflow:visible;">
      <path
         id="path4274"
         style="fill-rule:evenodd;stroke-width:0.62500000;stroke-linejoin:round;"
         d="M 8.7185878,4.0337352 L -2.2072895,0.016013256 L 8.7185884,-4.0017078 C 6.9730900,-1.6296469 6.9831476,1.6157441 8.7185878,4.0337352 z "
         transform="scale(0.6) rotate(180) translate(0,0)" />
    </marker>
    <linearGradient
       id="linearGradient3888"
       osb:paint="gradient">
      <stop
         style="stop-color:#99cc00;stop-opacity:1;"
         offset="0"
         id="stop3890" />
      <stop
         style="stop-color:#99cc00;stop-opacity:0;"
         offset="1"
         id="stop3892" />
    </linearGradient>
    <linearGradient
       id="linearGradient3878">
      <stop
         style="stop-color:#99cc00;stop-opacity:1;"
         offset="0"
         id="stop3880" />
      <stop
         style="stop-color:#99cc00;stop-opacity:0;"
         offset="1"
         id="stop3882" />
    </linearGradient>
    <linearGradient
       id="linearGradient4061">
      <stop
         id="stop4069"
         offset="0"
         style="stop-color:#44b939;stop-opacity:1;" />
      <stop
         style="stop-color:#441c78;stop-opacity:0.60683763;"
         offset="1"
         id="stop4073" />
    </linearGradient>
    <linearGradient
       id="linearGradient3986">
      <stop
         style="stop-color:#000044;stop-opacity:1;"
         offset="0"
         id="stop3988" />
      <stop
         style="stop-color:#000000;stop-opacity:0;"
         offset="1"
         id="stop3990" />
    </linearGradient>
    <linearGradient
       inkscape:collect="always"
       xlink:href="#linearGradient4061"
       id="linearGradient4067"
       x1="42.814426"
       y1="1055.9094"
       x2="63.007103"
       y2="1055.9094"
       gradientUnits="userSpaceOnUse" />
  </defs>
  <sodipodi:namedview
     id="base"
     pagecolor="#ffffff"
     bordercolor="#666666"
     borderopacity="1.0"
     inkscape:pageopacity="0.0"
     inkscape:pageshadow="2"
     inkscape:zoom="16.000001"
     inkscape:cx="162.64774"
     inkscape:cy="82.96643"
     inkscape:document-units="px"
     inkscape:current-layer="layer1"
     showgrid="true"
     inkscape:showpageshadow="true"
     showguides="true"
     inkscape:guide-bbox="true"
     inkscape:window-width="1920"
     inkscape:window-height="1030"
     inkscape:window-x="0"
     inkscape:window-y="0"
     inkscape:window-maximized="1"
     inkscape:snap-global="false">
    <sodipodi:guide
       orientation="1,0"
       position="-18,49"
       id="guide2987" />
    <inkscape:grid
       type="xygrid"
       id="grid3001"
       empspacing="5"
       visible="true"
       enabled="true"
       snapvisiblegridlinesonly="true" />
  </sodipodi:namedview>
  <metadata
     id="metadata7">
    <rdf:RDF>
      <cc:Work
         rdf:about="">
        <dc:format>image/svg+xml</dc:format>
        <dc:type
           rdf:resource="http://purl.org/dc/dcmitype/StillImage" />
        <dc:title></dc:title>
      </cc:Work>
    </rdf:RDF>
  </metadata>
  <g
     inkscape:label="Layer 1"
     inkscape:groupmode="layer"
     id="layer1"
     transform="translate(0,-1020.3622)">
    <path
       id="path2985-9-4-0"
       style="fill:#0099cc;fill-opacity:1;stroke:#0099cc;stroke-width:0.93754178;stroke-linecap:round;stroke-linejoin:miter;stroke-opacity:1"
       d="m 56.391462,1035.2734 1.137607,-5.1948 c 0.117177,-0.8203 1.782089,-0.1197 1.913915,-1.0938 0,0 0.546833,-3.2809 0.273416,-3.5543 -0.273416,-0.8203 -2.460747,-0.8203 -3.324938,-0.8203 m -0.0033,10.6644 -1.137608,-5.1948 c -0.117178,-0.8203 -1.78209,-0.1197 -1.913915,-1.0937 0,0 -0.546833,-3.2809 -0.273417,-3.5544 0.273417,-0.8203 2.460748,-0.8203 3.32494,-0.8203"
       inkscape:export-filename="/home/sr/git/ch.gpschase/GPS chase - App/res/drawable-mdpi/ic_cp_neutral_first_selected.png"
       inkscape:export-xdpi="350"
       inkscape:export-ydpi="350"
       inkscape:connector-curvature="0" />
    <path
       sodipodi:type="arc"
       style="fill:#99cc00;fill-opacity:1;stroke:#669900;stroke-width:0.57883417999999998;stroke-linecap:round;stroke-linejoin:round;stroke-miterlimit:4;stroke-opacity:1;stroke-dasharray:none;opacity:1"
       id="path3779"
       sodipodi:cx="46"
       sodipodi:cy="35"
       sodipodi:rx="10"
       sodipodi:ry="10"
       d="m 56,35 c 0,5.522847 -4.477153,10 -10,10 -5.522847,0 -10,-4.477153 -10,-10 0,-5.522847 4.477153,-10 10,-10 5.522847,0 10,4.477153 10,10 z"
       transform="matrix(1.0365663,0,0,1.0365663,4.9766424,1018.5925)"
       inkscape:export-filename="/home/sr/Desktop/logo.png"
       inkscape:export-xdpi="625.14087"
       inkscape:export-ydpi="625.14087" />
    <path
       id="path2985-9"
       style="fill:#aa66cc;fill-opacity:1;stroke:#9933cc;stroke-width:0.4;stroke-linecap:round;stroke-linejoin:round;stroke-miterlimit:4;stroke-opacity:1;stroke-dasharray:none"
       d="m 56.391411,1035.0506 1.090053,-4.9778 c 0.112279,-0.786 1.707593,-0.1146 1.833909,-1.0479 0,0 0.523974,-3.1439 0.261987,-3.4059 -0.261987,-0.7859 -2.357883,-0.7859 -3.185949,-0.7859 m -0.0032,10.2186 -1.090053,-4.9778 c -0.11228,-0.7859 -1.707594,-0.1146 -1.833909,-1.0479 0,0 -0.523974,-3.1439 -0.261987,-3.4058 0.261987,-0.786 2.357883,-0.786 3.185949,-0.786"
       inkscape:export-filename="/home/sr/git/ch.gpschase/GPS chase - App/res/drawable-mdpi/ic_cp_neutral_first_selected.png"
       inkscape:export-xdpi="350"
       inkscape:export-ydpi="350"
       inkscape:connector-curvature="0" />
    <path
       sodipodi:type="arc"
       style="fill:#9933cc;fill-opacity:1;stroke:none"
       id="path3998"
       sodipodi:cx="13"
       sodipodi:cy="13"
       sodipodi:rx="5.1781416"
       sodipodi:ry="4.4745998"
       d="m 18.178142,13 c 0,2.471253 -2.318333,4.4746 -5.178142,4.4746 -2.859809,0 -5.1781416,-2.003347 -5.1781416,-4.4746 0,-2.471253 2.3183326,-4.4745998 5.1781416,-4.4745998 2.859809,0 5.178142,2.0033468 5.178142,4.4745998 z"
       transform="matrix(0.26039022,0,0,0.29542588,53.004738,1023.5441)"
       inkscape:export-filename="/home/sr/git/ch.gpschase/GPS chase - App/res/drawable-mdpi/ic_cp_neutral_first_selected.png"
       inkscape:export-xdpi="350"
       inkscape:export-ydpi="350" />
    <path
       id="path2985-9-4"
       style="fill:#aa66cc;fill-opacity:1;stroke:#9933cc;stroke-width:0.4;stroke-linecap:round;stroke-linejoin:round;stroke-miterlimit:4;stroke-opacity:1;stroke-dasharray:none"
       d="m 48.004572,1035.2381 1.090053,-4.9777 c 0.112279,-0.786 1.707593,-0.1147 1.833909,-1.048 0,0 0.523974,-3.1438 0.261987,-3.4058 -0.261987,-0.786 -2.357883,-0.786 -3.185949,-0.786 m -0.0032,10.2186 -1.090053,-4.9777 c -0.11228,-0.786 -1.707594,-0.1146 -1.833909,-1.048 0,0 -0.523974,-3.1438 -0.261987,-3.4058 0.261987,-0.786 2.357883,-0.786 3.185949,-0.786"
       inkscape:export-filename="/home/sr/git/ch.gpschase/GPS chase - App/res/drawable-mdpi/ic_cp_neutral_first_normal.png"
       inkscape:export-xdpi="350"
       inkscape:export-ydpi="350"
       inkscape:connector-curvature="0" />
    <path
       sodipodi:type="arc"
       style="fill:#9933cc;fill-opacity:1;stroke:none"
       id="path3998-4"
       sodipodi:cx="13"
       sodipodi:cy="13"
       sodipodi:rx="5.1781416"
       sodipodi:ry="4.4745998"
       d="m 18.178142,13 c 0,2.471253 -2.318333,4.4746 -5.178142,4.4746 -2.859809,0 -5.1781416,-2.003347 -5.1781416,-4.4746 0,-2.471253 2.3183326,-4.4745998 5.1781416,-4.4745998 2.859809,0 5.178142,2.0033468 5.178142,4.4745998 z"
       transform="matrix(0.26039022,0,0,0.29542588,44.617899,1023.5441)"
       inkscape:export-filename="/home/sr/git/ch.gpschase/GPS chase - App/res/drawable-mdpi/ic_cp_neutral_first_normal.png"
       inkscape:export-xdpi="350"
       inkscape:export-ydpi="350" />
    <path
       id="path2985-9-61"
       style="fill:#aa66cc;fill-opacity:1;stroke:#9933cc;stroke-width:0.4;stroke-linecap:round;stroke-linejoin:round;stroke-miterlimit:4;stroke-opacity:1;stroke-dasharray:none"
       d="m 65.24046,1035.2381 1.090053,-4.9777 c 0.11228,-0.786 1.707594,-0.1147 1.833909,-1.048 0,0 0.523974,-3.1438 0.261987,-3.4058 -0.261987,-0.786 -2.357883,-0.786 -3.185949,-0.786 m -0.0032,10.2186 -1.090053,-4.9777 c -0.11228,-0.786 -1.707593,-0.1146 -1.833909,-1.0479 0,0 -0.523974,-3.1439 -0.261987,-3.4059 0.261987,-0.786 2.357883,-0.786 3.185949,-0.786"
       inkscape:export-filename="/home/sr/git/ch.gpschase/GPS chase - App/res/drawable-mdpi/ic_cp_neutral_other_normal.png"
       inkscape:export-xdpi="350"
       inkscape:export-ydpi="350"
       inkscape:connector-curvature="0" />
    <path
       id="path2985-9-4-0-2"
       style="fill:#0099cc;fill-opacity:1;stroke:#0099cc;stroke-width:0.93754178;stroke-linecap:round;stroke-linejoin:miter;stroke-opacity:1"
       d="m 74.422712,1035.6484 1.137607,-5.1948 c 0.117177,-0.8203 1.782089,-0.1197 1.913915,-1.0938 0,0 0.546833,-3.2809 0.273416,-3.5543 -0.273416,-0.8203 -2.460747,-0.8203 -3.324938,-0.8203 m -0.0033,10.6644 -1.137608,-5.1948 c -0.117178,-0.8203 -1.78209,-0.1197 -1.913915,-1.0937 0,0 -0.546833,-3.2809 -0.273417,-3.5544 0.273417,-0.8203 2.460748,-0.8203 3.32494,-0.8203"
       inkscape:export-filename="/home/sr/git/ch.gpschase/GPS chase - App/res/drawable-mdpi/ic_cp_neutral_other_selected.png"
       inkscape:export-xdpi="350"
       inkscape:export-ydpi="350"
       inkscape:connector-curvature="0" />
    <path
       id="path2985-9-1"
       style="fill:#aa66cc;fill-opacity:1;stroke:#9933cc;stroke-width:0.4;stroke-linecap:round;stroke-linejoin:round;stroke-miterlimit:4;stroke-opacity:1;stroke-dasharray:none"
       d="m 74.422661,1035.4256 1.090053,-4.9778 c 0.112279,-0.786 1.707593,-0.1146 1.833909,-1.0479 0,0 0.523974,-3.1439 0.261987,-3.4059 -0.261987,-0.7859 -2.357883,-0.7859 -3.185949,-0.7859 m -0.0032,10.2186 -1.090053,-4.9778 c -0.11228,-0.7859 -1.707594,-0.1146 -1.833909,-1.0479 0,0 -0.523974,-3.1439 -0.261987,-3.4058 0.261987,-0.786 2.357883,-0.786 3.185949,-0.786"
       inkscape:export-filename="/home/sr/git/ch.gpschase/GPS chase - App/res/drawable-mdpi/ic_cp_neutral_other_selected.png"
       inkscape:export-xdpi="350"
       inkscape:export-ydpi="350"
       inkscape:connector-curvature="0" />
    <path
       id="path2985-9-61-3"
       style="fill:#000000;fill-opacity:1;stroke:#040404;stroke-width:0.40000001;stroke-linecap:round;stroke-linejoin:round;stroke-miterlimit:4;stroke-opacity:1;stroke-dasharray:none"
       d="m 102.21324,1035.3846 1.09006,-4.9777 c 0.11228,-0.786 1.70759,-0.1147 1.83391,-1.048 0,0 0.52397,-3.1438 0.26198,-3.4058 -0.26198,-0.786 -2.35788,-0.786 -3.18595,-0.786 m -0.003,10.2186 -1.09005,-4.9777 c -0.11228,-0.786 -1.707592,-0.1146 -1.833908,-1.0479 0,0 -0.523974,-3.1439 -0.261987,-3.4059 0.261987,-0.786 2.357885,-0.786 3.185945,-0.786"
       inkscape:export-filename="/home/sr/Desktop/icon_checkpoint.png"
       inkscape:export-xdpi="403.14996"
       inkscape:export-ydpi="403.14996"
       inkscape:connector-curvature="0" />
    <path
       id="path2985-9-61-8-1"
       style="fill:#99cc00;fill-opacity:1;stroke:#669900;stroke-width:0.40000001000000002;stroke-linecap:round;stroke-linejoin:round;stroke-miterlimit:4;stroke-opacity:1;stroke-dasharray:none"
       d="m 78.267492,1062.8454 1.090053,-4.9777 c 0.11228,-0.786 1.707594,-0.1147 1.833909,-1.048 0,0 0.523974,-3.1438 0.261987,-3.4058 -0.261987,-0.786 -2.357883,-0.786 -3.185949,-0.786 m -0.0032,10.2186 -1.090053,-4.9777 c -0.11228,-0.786 -1.707593,-0.1146 -1.833909,-1.0479 0,0 -0.523974,-3.1439 -0.261987,-3.4059 0.261987,-0.786 2.357883,-0.786 3.185949,-0.786"
       inkscape:export-filename="/home/sr/git/ch.gpschase/GPS chase - App/res/drawable-mdpi/ic_cp_done_other_normal.png"
       inkscape:export-xdpi="350"
       inkscape:export-ydpi="350"
       inkscape:connector-curvature="0" />
    <path
       id="path2985-9-4-0-2-3-7"
       style="fill:#0099cc;fill-opacity:1;stroke:#0099cc;stroke-width:0.93754178;stroke-linecap:round;stroke-linejoin:miter;stroke-opacity:1"
       d="m 87.449743,1063.2557 1.137607,-5.1948 c 0.117177,-0.8203 1.782089,-0.1197 1.913915,-1.0938 0,0 0.546833,-3.2809 0.273416,-3.5543 -0.273416,-0.8203 -2.460747,-0.8203 -3.324938,-0.8203 m -0.0033,10.6644 -1.137608,-5.1948 c -0.117178,-0.8203 -1.782089,-0.1197 -1.913914,-1.0937 0,0 -0.546833,-3.2809 -0.273417,-3.5544 0.273417,-0.8203 2.460747,-0.8203 3.324939,-0.8203"
       inkscape:export-filename="/home/sr/git/ch.gpschase/GPS chase - App/res/drawable-mdpi/ic_cp_done_other_selected.png"
       inkscape:export-xdpi="350"
       inkscape:export-ydpi="350"
       inkscape:connector-curvature="0" />
    <path
       id="path2985-9-1-7-1"
       style="fill:#99cc00;fill-opacity:1;stroke:#669900;stroke-width:0.40000001000000002;stroke-linecap:round;stroke-linejoin:round;stroke-miterlimit:4;stroke-opacity:1;stroke-dasharray:none"
       d="m 87.449692,1063.0329 1.090053,-4.9778 c 0.112279,-0.786 1.707593,-0.1146 1.833909,-1.0479 0,0 0.523974,-3.1439 0.261987,-3.4059 -0.261987,-0.7859 -2.357883,-0.7859 -3.185949,-0.7859 m -0.0032,10.2186 -1.090053,-4.9778 c -0.11228,-0.7859 -1.707593,-0.1146 -1.833908,-1.0479 0,0 -0.523974,-3.1439 -0.261987,-3.4058 0.261987,-0.786 2.357882,-0.786 3.185948,-0.786"
       inkscape:export-filename="/home/sr/git/ch.gpschase/GPS chase - App/res/drawable-mdpi/ic_cp_done_other_selected.png"
       inkscape:export-xdpi="350"
       inkscape:export-ydpi="350"
       inkscape:connector-curvature="0" />
    <path
       id="path2985-9-4-0-1"
       style="fill:#0099cc;fill-opacity:1;stroke:#0099cc;stroke-width:0.93754178;stroke-linecap:round;stroke-linejoin:miter;stroke-opacity:1"
       d="m 87.177061,1050.0682 1.13761,-5.1948 c 0.11718,-0.8203 1.78209,-0.1197 1.91391,-1.0938 0,0 0.54684,-3.2809 0.27342,-3.5543 -0.27342,-0.8203 -2.46075,-0.8203 -3.32494,-0.8203 m -0.003,10.6644 -1.13761,-5.1948 c -0.11717,-0.8203 -1.78209,-0.1197 -1.91391,-1.0937 0,0 -0.54683,-3.2809 -0.27342,-3.5544 0.27342,-0.8203 2.46075,-0.8203 3.32494,-0.8203"
       inkscape:export-filename="/home/sr/git/ch.gpschase/GPS chase - App/res/drawable-mdpi/ic_cp_done_first_selected.png"
       inkscape:export-xdpi="350"
       inkscape:export-ydpi="350"
       inkscape:connector-curvature="0" />
    <path
       id="path2985-9-19"
       style="fill:#99cc00;fill-opacity:1;stroke:#669900;stroke-width:0.40000001000000002;stroke-linecap:round;stroke-linejoin:round;stroke-miterlimit:4;stroke-opacity:1;stroke-dasharray:none"
       d="m 87.177011,1049.8454 1.09005,-4.9778 c 0.11228,-0.786 1.7076,-0.1146 1.83391,-1.0479 0,0 0.52398,-3.1439 0.26199,-3.4059 -0.26199,-0.7859 -2.35788,-0.7859 -3.18595,-0.7859 m -0.003,10.2186 -1.09005,-4.9778 c -0.11228,-0.7859 -1.7076,-0.1146 -1.83391,-1.0479 0,0 -0.52398,-3.1439 -0.26199,-3.4058 0.26199,-0.786 2.35788,-0.786 3.18595,-0.786"
       inkscape:export-filename="/home/sr/git/ch.gpschase/GPS chase - App/res/drawable-mdpi/ic_cp_done_first_selected.png"
       inkscape:export-xdpi="350"
       inkscape:export-ydpi="350"
       inkscape:connector-curvature="0" />
    <path
       sodipodi:type="arc"
       style="fill:#669900;fill-opacity:1;stroke:none"
       id="path3998-3"
       sodipodi:cx="13"
       sodipodi:cy="13"
       sodipodi:rx="5.1781416"
       sodipodi:ry="4.4745998"
       d="m 18.178142,13 c 0,2.471253 -2.318333,4.4746 -5.178142,4.4746 -2.859809,0 -5.1781416,-2.003347 -5.1781416,-4.4746 0,-2.471253 2.3183326,-4.4745998 5.1781416,-4.4745998 2.859809,0 5.178142,2.0033468 5.178142,4.4745998 z"
       transform="matrix(0.26039022,0,0,0.29542588,83.790341,1038.3389)"
       inkscape:export-filename="/home/sr/git/ch.gpschase/GPS chase - App/res/drawable-mdpi/ic_cp_done_first_selected.png"
       inkscape:export-xdpi="350"
       inkscape:export-ydpi="350" />
    <path
       id="path2985-9-4-1"
       style="fill:#99cc00;fill-opacity:1;stroke:#669900;stroke-width:0.40000001000000002;stroke-linecap:round;stroke-linejoin:round;stroke-miterlimit:4;stroke-opacity:1;stroke-dasharray:none"
       d="m 78.790173,1050.0329 1.090053,-4.9777 c 0.112279,-0.786 1.707595,-0.1147 1.833905,-1.048 0,0 0.52398,-3.1438 0.26199,-3.4058 -0.26199,-0.786 -2.357882,-0.786 -3.185948,-0.786 m -0.0032,10.2186 -1.090053,-4.9777 c -0.11228,-0.786 -1.707594,-0.1146 -1.833909,-1.048 0,0 -0.523974,-3.1438 -0.261987,-3.4058 0.261987,-0.786 2.357883,-0.786 3.185949,-0.786"
       inkscape:export-filename="/home/sr/git/ch.gpschase/GPS chase - App/res/drawable-mdpi/ic_cp_done_first_normal.png"
       inkscape:export-xdpi="350"
       inkscape:export-ydpi="350"
       inkscape:connector-curvature="0" />
    <path
       sodipodi:type="arc"
       style="fill:#669900;fill-opacity:1;stroke:none"
       id="path3998-4-9"
       sodipodi:cx="13"
       sodipodi:cy="13"
       sodipodi:rx="5.1781416"
       sodipodi:ry="4.4745998"
       d="m 18.178142,13 c 0,2.471253 -2.318333,4.4746 -5.178142,4.4746 -2.859809,0 -5.1781416,-2.003347 -5.1781416,-4.4746 0,-2.471253 2.3183326,-4.4745998 5.1781416,-4.4745998 2.859809,0 5.178142,2.0033468 5.178142,4.4745998 z"
       transform="matrix(0.26039022,0,0,0.29542588,75.4035,1038.3389)"
       inkscape:export-filename="/home/sr/git/ch.gpschase/GPS chase - App/res/drawable-mdpi/ic_cp_done_first_normal.png"
       inkscape:export-xdpi="350"
       inkscape:export-ydpi="350" />
    <rect
       style="fill:#ffecc0;fill-opacity:1;stroke:none"
       id="rect4093-1"
       width="17.54464"
       height="18.11595"
       x="142.82993"
       y="956.8374"
       inkscape:export-filename="/home/sr/Desktop/chases.png"
       inkscape:export-xdpi="300.67365"
       inkscape:export-ydpi="300.67365" />
    <path
       style="fill:none;stroke:#000000;stroke-width:0.2;stroke-linecap:round;stroke-linejoin:miter;stroke-miterlimit:4;stroke-opacity:1;stroke-dasharray:none"
       d="m 139.90681,1004.7484 c 0.0567,-0.149 1.41842,-1.0307 1.86629,-1.1819 2.12044,-0.7161 4.67693,-1.8851 6.1052,-2.2538 3.38844,-0.5391 2.36768,-2.36359 6.00103,-4.71037 0.86633,-0.31662 1.56474,-0.92534 1.56474,-0.92534"
       id="path3970-3-4"
       inkscape:connector-curvature="0"
       sodipodi:nodetypes="csccc"
       inkscape:export-filename="/home/sr/Desktop/chase.png"
       inkscape:export-xdpi="625.14087"
       inkscape:export-ydpi="625.14087" />
    <path
       id="path2985-9-6-1-8"
       style="fill:#000000;fill-opacity:1;stroke:#000000;stroke-width:0.3125;stroke-linecap:round;stroke-linejoin:round;stroke-miterlimit:4;stroke-opacity:1;stroke-dasharray:none"
       d="m 141.71509,1003.4877 0.96136,-4.39012 c 0.099,-0.6931 1.50599,-0.1011 1.61739,-0.9242 0,0 0.46211,-2.7728 0.23105,-3.0038 -0.23105,-0.6931 -2.0795,-0.6931 -2.8098,-0.6931 m -0.003,9.01222 -0.96135,-4.39012 c -0.099,-0.6932 -1.50599,-0.1011 -1.61739,-0.9242 0,0 -0.46211,-2.7727 -0.23106,-3.0037 0.23106,-0.6932 2.0795,-0.6932 2.8098,-0.6932"
       inkscape:export-filename="/home/sr/Desktop/chase.png"
       inkscape:export-xdpi="625.14087"
       inkscape:export-ydpi="625.14087"
       inkscape:connector-curvature="0" />
    <path
       id="path2985-9-6-1-8-3"
       style="fill:none;stroke:#000000;stroke-width:0.25;stroke-linecap:round;stroke-linejoin:round;stroke-miterlimit:4;stroke-opacity:1;stroke-dasharray:none"
       d="m 147.83985,1001.1872 0.76088,-3.4746 c 0.0783,-0.54857 1.19193,-0.08 1.2801,-0.73148 0,0 0.36575,-2.19465 0.18287,-2.37748 -0.18287,-0.54848 -1.64584,-0.54848 -2.22385,-0.54848 m -0.002,7.13284 -0.76087,-3.47461 c -0.0784,-0.54865 -1.19194,-0.0801 -1.28011,-0.73148 0,0 -0.36575,-2.19449 -0.18288,-2.37731 0.18288,-0.54873 1.64586,-0.54873 2.22386,-0.54873"
       inkscape:export-filename="/home/sr/Desktop/chase.png"
       inkscape:export-xdpi="625.14087"
       inkscape:export-ydpi="625.14087"
       inkscape:connector-curvature="0" />
    <path
       style="fill:none;stroke:#9933cc;stroke-width:0.80000000999999998;stroke-linecap:round;stroke-linejoin:miter;stroke-miterlimit:4;stroke-opacity:1;stroke-dasharray:none"
       d="m 47.163135,1062.1091 c 1.75873,-0.1365 3.2627,-4.7746 5.1377,-5.5246 1.58444,-0.5771 4.696,0.2958 5.65748,0.074 1.20694,-0.5258 1.90109,-0.7704 1.90109,-0.7704"
       id="path3970-3-4-2"
       inkscape:connector-curvature="0"
       sodipodi:nodetypes="cccc"
       inkscape:export-filename="/home/sr/Desktop/logo.png"
       inkscape:export-xdpi="625.14087"
       inkscape:export-ydpi="625.14087" />
    <path
       id="path2985-9-6-1-8-8"
       style="fill:#aa66cc;fill-opacity:1;stroke:#9933cc;stroke-width:0.31250000000000000;stroke-linecap:round;stroke-linejoin:round;stroke-miterlimit:4;stroke-opacity:1;stroke-dasharray:none"
       d="m 47.411675,1061.9747 0.96136,-4.3901 c 0.099,-0.6931 1.50599,-0.1011 1.61739,-0.9242 0,0 0.46211,-2.7728 0.23105,-3.0038 -0.23105,-0.6931 -2.0795,-0.6931 -2.8098,-0.6931 m -0.003,9.0122 -0.96135,-4.3901 c -0.099,-0.6932 -1.50599,-0.1011 -1.61739,-0.9242 0,0 -0.46211,-2.7727 -0.23106,-3.0037 0.23106,-0.6932 2.0795,-0.6932 2.8098,-0.6932"
       inkscape:export-filename="/home/sr/Desktop/logo.png"
       inkscape:export-xdpi="625.14087"
       inkscape:export-ydpi="625.14087"
       inkscape:connector-curvature="0" />
    <path
       id="path2985-9-6-1-8-3-3"
       style="fill:#aa66cc;fill-opacity:1;stroke:#9933cc;stroke-width:0.25918113999999998;stroke-linecap:round;stroke-linejoin:round;stroke-miterlimit:4;stroke-opacity:1;stroke-dasharray:none"
       d="m 52.288995,1056.509 0.79733,-3.6411 c 0.0821,-0.5748 1.24904,-0.084 1.34143,-0.7665 0,0 0.38327,-2.2998 0.19163,-2.4913 -0.19163,-0.5748 -1.72469,-0.5748 -2.33039,-0.5748 m -0.002,7.4746 -0.79732,-3.6411 c -0.0821,-0.575 -1.24904,-0.084 -1.34143,-0.7665 0,0 -0.38327,-2.2997 -0.19164,-2.4912 0.19164,-0.5751 1.7247,-0.5751 2.33039,-0.5751"
       inkscape:export-filename="/home/sr/Desktop/logo.png"
       inkscape:export-xdpi="625.14087"
       inkscape:export-ydpi="625.14087"
       inkscape:connector-curvature="0" />
    <path
       id="path2985-9-6-1-8-7-5"
       style="fill:#aa66cc;fill-opacity:1;stroke:#9933cc;stroke-width:0.22430227999999999;stroke-linecap:round;stroke-linejoin:round;stroke-miterlimit:4;stroke-opacity:1;stroke-dasharray:none"
       d="m 57.898355,1056.2928 0.69003,-3.1511 c 0.071,-0.4975 1.08095,-0.073 1.16091,-0.6633 0,0 0.33169,-1.9903 0.16584,-2.1561 -0.16584,-0.4974 -1.4926,-0.4974 -2.01678,-0.4974 m -0.002,6.4686 -0.69002,-3.1511 c -0.071,-0.4976 -1.08095,-0.073 -1.16091,-0.6633 0,0 -0.33169,-1.9901 -0.16585,-2.156 0.16585,-0.4976 1.4926,-0.4976 2.01678,-0.4976"
       inkscape:export-filename="/home/sr/Desktop/logo.png"
       inkscape:export-xdpi="625.14087"
       inkscape:export-ydpi="625.14087"
       inkscape:connector-curvature="0" />
    <rect
       style="fill:#ffecc0;fill-opacity:1;stroke:none"
       id="rect4093-1-7"
       width="19.770264"
       height="20.414047"
       x="174.34839"
       y="1017.4938"
       inkscape:export-filename="/home/sr/Desktop/chases.png"
       inkscape:export-xdpi="300.67365"
       inkscape:export-ydpi="300.67365" />
    <path
       id="path2985-9-6-1-8-3-6"
       style="fill:none;stroke:#000000;stroke-width:0.18097709;stroke-linecap:round;stroke-linejoin:round;stroke-miterlimit:4;stroke-opacity:1;stroke-dasharray:none"
       d="m 153.88483,996.52138 0.55081,-2.51529 c 0.0567,-0.39706 0.86285,-0.0579 0.92667,-0.52947 0,0 0.26477,-1.58876 0.13238,-1.72109 -0.13238,-0.39706 -1.19143,-0.39706 -1.60986,-0.39706 m -0.001,5.16349 -0.5508,-2.51529 c -0.0567,-0.39714 -0.86285,-0.0579 -0.92668,-0.52954 0,0 -0.26477,-1.58854 -0.13239,-1.72095 0.13239,-0.39721 1.19145,-0.39721 1.60987,-0.39721"
       inkscape:export-filename="/home/sr/Desktop/chase.png"
       inkscape:export-xdpi="625.14087"
       inkscape:export-ydpi="625.14087"
       inkscape:connector-curvature="0" />
    <rect
       style="fill:#ffecc0;fill-opacity:1;stroke:none"
       id="rect4093-1-8"
       width="19.770264"
       height="20.414047"
       x="110.11487"
       y="965.46765"
       inkscape:export-filename="/home/sr/Desktop/chases.png"
       inkscape:export-xdpi="300.67365"
       inkscape:export-ydpi="300.67365" />
    <path
       style="fill:none;stroke:#000000;stroke-width:0.8;stroke-linecap:round;stroke-linejoin:miter;stroke-miterlimit:4;stroke-opacity:1;stroke-dasharray:none"
       d="m 113.53331,1004.6214 c 0.0567,-0.149 1.41842,-1.0307 1.86629,-1.1819 2.12044,-0.7161 4.67693,-1.8851 6.1052,-2.2538 3.38844,-0.5391 2.36768,-2.3636 6.00103,-4.7104 0.86633,-0.3166 1.56474,-0.9253 1.56474,-0.9253"
       id="path3970-3-4-5"
       inkscape:connector-curvature="0"
       sodipodi:nodetypes="csccc"
       inkscape:export-filename="/home/sr/Desktop/trail.png"
       inkscape:export-xdpi="625.14087"
       inkscape:export-ydpi="625.14087" />
    <path
       id="path2985-9-6-1-8-1"
       style="fill:#000000;fill-opacity:1;stroke:#000000;stroke-width:0.3125;stroke-linecap:round;stroke-linejoin:round;stroke-miterlimit:4;stroke-opacity:1;stroke-dasharray:none"
       d="m 115.31949,1003.3607 0.96136,-4.39019 c 0.099,-0.6931 1.50599,-0.1011 1.61739,-0.9242 0,0 0.46211,-2.7728 0.23105,-3.0038 -0.23105,-0.6931 -2.0795,-0.6931 -2.8098,-0.6931 m -0.003,9.01229 -0.96135,-4.39019 c -0.099,-0.6932 -1.50599,-0.1011 -1.61739,-0.9242 0,0 -0.46211,-2.7727 -0.23106,-3.0037 0.23106,-0.6932 2.0795,-0.6932 2.8098,-0.6932"
       inkscape:export-filename="/home/sr/Desktop/trail.png"
       inkscape:export-xdpi="625.14087"
       inkscape:export-ydpi="625.14087"
       inkscape:connector-curvature="0" />
    <path
       id="path2985-9-6-1-8-3-4"
       style="fill:#000000;stroke:#000000;stroke-width:0.25000000000000000;stroke-linecap:round;stroke-linejoin:round;stroke-miterlimit:4;stroke-opacity:1;stroke-dasharray:none;fill-opacity:1"
       d="m 121.46635,1001.0602 0.76088,-3.4746 c 0.0783,-0.5486 1.19193,-0.08 1.2801,-0.7315 0,0 0.36575,-2.1947 0.18287,-2.3775 -0.18287,-0.5485 -1.64584,-0.5485 -2.22385,-0.5485 m -0.002,7.1329 -0.76087,-3.4746 c -0.0784,-0.5487 -1.19194,-0.08 -1.28011,-0.7315 0,0 -0.36575,-2.1945 -0.18288,-2.3773 0.18288,-0.5488 1.64586,-0.5488 2.22386,-0.5488"
       inkscape:export-filename="/home/sr/Desktop/trail.png"
       inkscape:export-xdpi="625.14087"
       inkscape:export-ydpi="625.14087"
       inkscape:connector-curvature="0" />
    <path
       id="path2985-9-6-1-8-3-6-7"
       style="fill:#000000;stroke:#000000;stroke-width:0.18097709000000001;stroke-linecap:round;stroke-linejoin:round;stroke-miterlimit:4;stroke-opacity:1;stroke-dasharray:none;fill-opacity:1"
       d="m 127.51133,996.3944 0.55081,-2.5153 c 0.0567,-0.3971 0.86285,-0.058 0.92667,-0.5295 0,0 0.26477,-1.5888 0.13238,-1.7211 -0.13238,-0.3971 -1.19143,-0.3971 -1.60986,-0.3971 m -0.001,5.1635 -0.5508,-2.5153 c -0.0567,-0.3971 -0.86285,-0.058 -0.92668,-0.5295 0,0 -0.26477,-1.5885 -0.13239,-1.7209 0.13239,-0.3973 1.19145,-0.3973 1.60987,-0.3973"
       inkscape:export-filename="/home/sr/Desktop/trail.png"
       inkscape:export-xdpi="625.14087"
       inkscape:export-ydpi="625.14087"
       inkscape:connector-curvature="0" />
    <path
       style="fill:none;stroke:#000000;stroke-width:0.80000001;stroke-linecap:round;stroke-linejoin:miter;stroke-miterlimit:4;stroke-opacity:1;stroke-dasharray:none"
       d="m 139.73898,1004.7485 c 0.0567,-0.149 1.41842,-1.0307 1.86629,-1.1819 2.12044,-0.7161 4.67693,-1.8851 6.1052,-2.2538"
       id="path3970-3-4-5-7"
       inkscape:connector-curvature="0"
       sodipodi:nodetypes="csc"
       inkscape:export-filename="/home/sr/Desktop/chase.png"
       inkscape:export-xdpi="625.14087"
       inkscape:export-ydpi="625.14087" />
    <path
       style="fill:none;stroke:#000000;stroke-width:1.4;stroke-linecap:butt;stroke-linejoin:miter;stroke-opacity:1;stroke-miterlimit:4;stroke-dasharray:none"
       d="m 169.777,973.29752 c 15.0255,0 15.0255,0 15.0255,0"
       id="path5296"
       inkscape:connector-curvature="0"
       inkscape:export-filename="/home/sr/Desktop/chases.png"
       inkscape:export-xdpi="658.62787"
       inkscape:export-ydpi="658.62787" />
    <path
       style="fill:none;stroke:#000000;stroke-width:1.39999998;stroke-linecap:butt;stroke-linejoin:miter;stroke-miterlimit:4;stroke-opacity:1;stroke-dasharray:none"
       d="m 169.777,976.4387 c 15.0255,0 15.0255,0 15.0255,0"
       id="path5296-9"
       inkscape:connector-curvature="0"
       inkscape:export-filename="/home/sr/Desktop/chases.png"
       inkscape:export-xdpi="658.62787"
       inkscape:export-ydpi="658.62787" />
    <path
       style="fill:none;stroke:#000000;stroke-width:1.4;stroke-linecap:butt;stroke-linejoin:miter;stroke-miterlimit:4;stroke-opacity:1;stroke-dasharray:none"
       d="m 169.777,979.57986 c 15.0255,0 15.0255,0 15.0255,0"
       id="path5296-1"
       inkscape:connector-curvature="0"
       inkscape:export-filename="/home/sr/Desktop/chases.png"
       inkscape:export-xdpi="658.62787"
       inkscape:export-ydpi="658.62787" />
    <path
       style="fill:none;stroke:#000000;stroke-width:1.39999998;stroke-linecap:butt;stroke-linejoin:miter;stroke-miterlimit:4;stroke-opacity:1;stroke-dasharray:none"
       d="m 169.777,982.72103 c 15.0255,0 15.0255,0 15.0255,0"
       id="path5296-3"
       inkscape:connector-curvature="0"
       inkscape:export-filename="/home/sr/Desktop/chases.png"
       inkscape:export-xdpi="658.62787"
       inkscape:export-ydpi="658.62787" />
    <path
       style="fill:none;stroke:#000000;stroke-width:1.4;stroke-linecap:butt;stroke-linejoin:miter;stroke-opacity:1;stroke-miterlimit:4;stroke-dasharray:none"
       d="m 169.777,985.8622 c 15.0255,0 15.0255,0 15.0255,0"
       id="path5296-3-6"
       inkscape:connector-curvature="0"
       inkscape:export-filename="/home/sr/Desktop/chases.png"
       inkscape:export-xdpi="658.62787"
       inkscape:export-ydpi="658.62787" />
  </g>
</svg>
