<?xml version="1.0" encoding="UTF-8" standalone="no"?>
<!-- Created with Inkscape (http://www.inkscape.org/) -->

<svg
   xmlns:osb="http://www.openswatchbook.org/uri/2009/osb"
   xmlns:dc="http://purl.org/dc/elements/1.1/"
   xmlns:cc="http://creativecommons.org/ns#"
   xmlns:rdf="http://www.w3.org/1999/02/22-rdf-syntax-ns#"
   xmlns:svg="http://www.w3.org/2000/svg"
   xmlns="http://www.w3.org/2000/svg"
   xmlns:xlink="http://www.w3.org/1999/xlink"
   xmlns:sodipodi="http://sodipodi.sourceforge.net/DTD/sodipodi-0.dtd"
   xmlns:inkscape="http://www.inkscape.org/namespaces/inkscape"
   width="64"
   height="48"
   id="svg2"
   version="1.1"
   inkscape:version="0.48.4 r9939"
   sodipodi:docname="markers.svg"
   inkscape:export-filename="/home/sr/git/ch.gpschase/GPS chase - App/res/drawable/logo.png"
   inkscape:export-xdpi="105.88109"
   inkscape:export-ydpi="105.88109">
  <defs
     id="defs4">
    <marker
       inkscape:stockid="Arrow2Mend"
       orient="auto"
       refY="0"
       refX="0"
       id="Arrow2Mend"
       style="overflow:visible">
      <path
         id="path4274"
         style="fill-rule:evenodd;stroke-width:0.625;stroke-linejoin:round"
         d="M 8.7185878,4.0337352 -2.2072895,0.01601326 8.7185884,-4.0017078 c -1.7454984,2.3720609 -1.7354408,5.6174519 -6e-7,8.035443 z"
         transform="scale(-0.6,-0.6)"
         inkscape:connector-curvature="0" />
    </marker>
    <linearGradient
       id="linearGradient3888"
       osb:paint="gradient">
      <stop
         style="stop-color:#99cc00;stop-opacity:1;"
         offset="0"
         id="stop3890" />
      <stop
         style="stop-color:#99cc00;stop-opacity:0;"
         offset="1"
         id="stop3892" />
    </linearGradient>
    <linearGradient
       id="linearGradient3878">
      <stop
         style="stop-color:#99cc00;stop-opacity:1;"
         offset="0"
         id="stop3880" />
      <stop
         style="stop-color:#99cc00;stop-opacity:0;"
         offset="1"
         id="stop3882" />
    </linearGradient>
    <linearGradient
       id="linearGradient4061">
      <stop
         id="stop4069"
         offset="0"
         style="stop-color:#44b939;stop-opacity:1;" />
      <stop
         style="stop-color:#441c78;stop-opacity:0.60683763;"
         offset="1"
         id="stop4073" />
    </linearGradient>
    <linearGradient
       id="linearGradient3986">
      <stop
         style="stop-color:#000044;stop-opacity:1;"
         offset="0"
         id="stop3988" />
      <stop
         style="stop-color:#000000;stop-opacity:0;"
         offset="1"
         id="stop3990" />
    </linearGradient>
    <linearGradient
       inkscape:collect="always"
       xlink:href="#linearGradient4061"
       id="linearGradient4067"
       x1="42.814426"
       y1="1055.9094"
       x2="63.007103"
       y2="1055.9094"
       gradientUnits="userSpaceOnUse" />
  </defs>
  <sodipodi:namedview
     id="base"
     pagecolor="#80ceea"
     bordercolor="#666666"
     borderopacity="1.0"
     inkscape:pageopacity="0"
     inkscape:pageshadow="2"
     inkscape:zoom="11.313709"
     inkscape:cx="70.768548"
     inkscape:cy="74.249754"
     inkscape:document-units="px"
     inkscape:current-layer="layer1"
     showgrid="true"
     inkscape:showpageshadow="true"
     showguides="true"
     inkscape:guide-bbox="true"
     inkscape:window-width="1920"
     inkscape:window-height="1030"
     inkscape:window-x="0"
     inkscape:window-y="0"
     inkscape:window-maximized="1"
     inkscape:snap-global="false">
    <sodipodi:guide
       orientation="1,0"
       position="15.984374,6.2187496"
       id="guide2987" />
    <inkscape:grid
       type="xygrid"
       id="grid3001"
       empspacing="5"
       visible="true"
       enabled="true"
       snapvisiblegridlinesonly="true" />
    <sodipodi:guide
       orientation="0,1"
       position="-1.1490484,3.9885239"
       id="guide3034" />
    <sodipodi:guide
       orientation="0,1"
       position="-2.7842328,28.947182"
       id="guide3038" />
    <sodipodi:guide
       orientation="1,0"
       position="31.999998,52.249997"
       id="guide3040" />
  </sodipodi:namedview>
  <metadata
     id="metadata7">
    <rdf:RDF>
      <cc:Work
         rdf:about="">
        <dc:format>image/svg+xml</dc:format>
        <dc:type
           rdf:resource="http://purl.org/dc/dcmitype/StillImage" />
        <dc:title></dc:title>
      </cc:Work>
    </rdf:RDF>
  </metadata>
  <g
     inkscape:label="Layer 1"
     inkscape:groupmode="layer"
     id="layer1"
     transform="translate(0,-1004.3622)">
    <path
       sodipodi:type="arc"
       style="fill:#d3e992;fill-opacity:1;stroke:#669900;stroke-width:0.57883418;stroke-linecap:round;stroke-linejoin:round;stroke-miterlimit:4;stroke-opacity:1;stroke-dasharray:none"
       id="path3779"
       sodipodi:cx="46"
       sodipodi:cy="35"
       sodipodi:rx="10"
       sodipodi:ry="10"
       d="m 56,35 c 0,5.522847 -4.477153,10 -10,10 -5.522847,0 -10,-4.477153 -10,-10 0,-5.522847 4.477153,-10 10,-10 5.522847,0 10,4.477153 10,10 z"
       transform="matrix(1.0365663,0,0,1.0365663,58.363201,935.46583)"
       inkscape:export-filename="/home/sr/Desktop/logo_highres.png"
       inkscape:export-xdpi="2161.9187"
       inkscape:export-ydpi="2161.9187" />
    <path
       id="path2985-9"
       style="fill:#aa66cc;fill-opacity:1;stroke:none"
       d="m 94.650554,1031.2451 1.090053,-4.9778 c 0.112279,-0.786 1.707593,-0.1146 1.833909,-1.0479 0,0 0.523974,-3.1439 0.261987,-3.4059 -0.261987,-0.7859 -2.357883,-0.7859 -3.185949,-0.7859 m -0.0032,10.2186 -1.090053,-4.9778 c -0.11228,-0.7859 -1.707594,-0.1146 -1.833909,-1.0479 0,0 -0.523974,-3.1439 -0.261987,-3.4058 0.261987,-0.786 2.357883,-0.786 3.185949,-0.786"
       inkscape:export-filename="/home/sr/git/gps-chase_app/gps-chase_app/res/drawable/ic_cp_neutral_first_selected.png"
       inkscape:export-xdpi="350"
       inkscape:export-ydpi="350"
       inkscape:connector-curvature="0" />
    <path
       sodipodi:type="arc"
       style="fill:#9933cc;fill-opacity:1;stroke:none"
       id="path3998"
       sodipodi:cx="13"
       sodipodi:cy="13"
       sodipodi:rx="5.1781416"
       sodipodi:ry="4.4745998"
       d="M 18.178142,13 A 5.1781416,4.4745998 0 1 1 7.8218584,13 5.1781416,4.4745998 0 1 1 18.178142,13 z"
       transform="matrix(0.26039022,0,0,0.29542588,91.263881,1019.7386)"
       inkscape:export-filename="/home/sr/git/gps-chase_app/gps-chase_app/res/drawable/ic_cp_neutral_first_selected.png"
       inkscape:export-xdpi="350"
       inkscape:export-ydpi="350" />
    <path
       id="path2985-9-4"
       style="fill:#aa66cc;fill-opacity:1;stroke:#9933cc;stroke-width:0.40000001;stroke-linecap:round;stroke-linejoin:round;stroke-miterlimit:4;stroke-opacity:1;stroke-dasharray:none"
       d="m 84.263715,1031.4326 1.090053,-4.9777 c 0.112279,-0.786 1.707593,-0.1147 1.833909,-1.048 0,0 0.523974,-3.1438 0.261987,-3.4058 -0.261987,-0.786 -2.357883,-0.786 -3.185949,-0.786 m -0.0032,10.2186 -1.090053,-4.9777 c -0.11228,-0.786 -1.707594,-0.1146 -1.833909,-1.048 0,0 -0.523974,-3.1438 -0.261987,-3.4058 0.261987,-0.786 2.357883,-0.786 3.185949,-0.786"
       inkscape:export-filename="/home/sr/git/ch.gpschase/GPS chase - App/res/drawable-mdpi/ic_cp_neutral_first_normal.png"
       inkscape:export-xdpi="350"
       inkscape:export-ydpi="350"
       inkscape:connector-curvature="0" />
    <path
       sodipodi:type="arc"
       style="fill:#9933cc;fill-opacity:1;stroke:none"
       id="path3998-4"
       sodipodi:cx="13"
       sodipodi:cy="13"
       sodipodi:rx="5.1781416"
       sodipodi:ry="4.4745998"
       d="M 18.178142,13 A 5.1781416,4.4745998 0 1 1 7.8218584,13 5.1781416,4.4745998 0 1 1 18.178142,13 z"
       transform="matrix(0.26039022,0,0,0.29542588,80.877042,1019.7386)"
       inkscape:export-filename="/home/sr/git/ch.gpschase/GPS chase - App/res/drawable-mdpi/ic_cp_neutral_first_normal.png"
       inkscape:export-xdpi="350"
       inkscape:export-ydpi="350" />
    <path
       id="path2985-9-61"
       style="fill:#aa66cc;fill-opacity:1;stroke:#9933cc;stroke-width:0.40000001;stroke-linecap:round;stroke-linejoin:round;stroke-miterlimit:4;stroke-opacity:1;stroke-dasharray:none"
       d="m 84.187107,1044.0576 1.09005,-4.9777 c 0.11228,-0.786 1.70759,-0.1147 1.83391,-1.048 0,0 0.52397,-3.1438 0.26199,-3.4058 -0.26199,-0.786 -2.35789,-0.786 -3.18595,-0.786 m -0.003,10.2186 -1.09006,-4.9777 c -0.11228,-0.786 -1.70759,-0.1146 -1.83391,-1.0479 0,0 -0.52397,-3.1439 -0.26198,-3.4059 0.26198,-0.786 2.35788,-0.786 3.18595,-0.786"
       inkscape:export-filename="/home/sr/git/ch.gpschase/GPS chase - App/res/drawable-mdpi/ic_cp_neutral_other_normal.png"
       inkscape:export-xdpi="350"
       inkscape:export-ydpi="350"
       inkscape:connector-curvature="0" />
    <path
       id="path2985-9-1"
       style="fill:#aa66cc;fill-opacity:1;stroke:none"
       d="m 94.306807,1044.6201 1.09005,-4.9778 c 0.11228,-0.786 1.70759,-0.1146 1.83391,-1.0479 0,0 0.52397,-3.1439 0.26199,-3.4059 -0.26199,-0.7859 -2.35789,-0.7859 -3.18595,-0.7859 m -0.003,10.2186 -1.09006,-4.9778 c -0.11228,-0.7859 -1.70759,-0.1146 -1.8339,-1.0479 0,0 -0.52398,-3.1439 -0.26199,-3.4058 0.26199,-0.786 2.35788,-0.786 3.18595,-0.786"
       inkscape:export-filename="/home/sr/git/gps-chase_app/gps-chase_app/res/drawable/ic_cp_neutral_other_selected.png"
       inkscape:export-xdpi="350"
       inkscape:export-ydpi="350"
       inkscape:connector-curvature="0" />
    <path
       id="path2985-9-61-8-1"
       style="fill:#99cc00;fill-opacity:1;stroke:#669900;stroke-width:0.40000001;stroke-linecap:round;stroke-linejoin:round;stroke-miterlimit:4;stroke-opacity:1;stroke-dasharray:none"
       d="m 85.026637,1083.4149 1.090053,-4.9777 c 0.11228,-0.786 1.707594,-0.1147 1.833909,-1.048 0,0 0.523974,-3.1438 0.261987,-3.4058 -0.261987,-0.786 -2.357883,-0.786 -3.185949,-0.786 m -0.0032,10.2186 -1.090053,-4.9777 c -0.11228,-0.786 -1.707593,-0.1146 -1.833909,-1.0479 0,0 -0.523974,-3.1439 -0.261987,-3.4059 0.261987,-0.786 2.357883,-0.786 3.185949,-0.786"
       inkscape:export-filename="/home/sr/git/ch.gpschase/GPS chase - App/res/drawable-mdpi/ic_cp_done_other_normal.png"
       inkscape:export-xdpi="350"
       inkscape:export-ydpi="350"
       inkscape:connector-curvature="0" />
    <path
       id="path2985-9-1-7-1"
       style="fill:#99cc00;fill-opacity:1;stroke:#669900;stroke-width:0.40000001;stroke-linecap:round;stroke-linejoin:round;stroke-miterlimit:4;stroke-opacity:1;stroke-dasharray:none"
       d="m 94.208837,1083.6024 1.090053,-4.9778 c 0.112279,-0.786 1.707593,-0.1146 1.833909,-1.0479 0,0 0.523974,-3.1439 0.261987,-3.4059 -0.261987,-0.7859 -2.357883,-0.7859 -3.185949,-0.7859 m -0.0032,10.2186 -1.090053,-4.9778 c -0.11228,-0.7859 -1.707593,-0.1146 -1.833908,-1.0479 0,0 -0.523974,-3.1439 -0.261987,-3.4058 0.261987,-0.786 2.357882,-0.786 3.185948,-0.786"
       inkscape:export-filename="/home/sr/git/gps-chase_app/gps-chase_app/res/drawable/ic_cp_done_other_selected.png"
       inkscape:export-xdpi="350"
       inkscape:export-ydpi="350"
       inkscape:connector-curvature="0" />
    <path
       id="path2985-9-19"
       style="fill:#99cc00;fill-opacity:1;stroke:none"
       d="m 93.436156,1070.6649 1.09005,-4.9778 c 0.11228,-0.786 1.7076,-0.1146 1.83391,-1.0479 0,0 0.52398,-3.1439 0.26199,-3.4059 -0.26199,-0.7859 -2.35788,-0.7859 -3.18595,-0.7859 m -0.003,10.2186 -1.09005,-4.9778 c -0.11228,-0.7859 -1.7076,-0.1146 -1.83391,-1.0479 0,0 -0.52398,-3.1439 -0.26199,-3.4058 0.26199,-0.786 2.35788,-0.786 3.18595,-0.786"
       inkscape:export-filename="/home/sr/git/gps-chase_app/gps-chase_app/res/drawable/ic_cp_done_first_selected.png"
       inkscape:export-xdpi="350"
       inkscape:export-ydpi="350"
       inkscape:connector-curvature="0" />
    <path
       sodipodi:type="arc"
       style="fill:#669900;fill-opacity:1;stroke:none"
       id="path3998-3"
       sodipodi:cx="13"
       sodipodi:cy="13"
       sodipodi:rx="5.1781416"
       sodipodi:ry="4.4745998"
       d="M 18.178142,13 A 5.1781416,4.4745998 0 1 1 7.8218584,13 5.1781416,4.4745998 0 1 1 18.178142,13 z"
       transform="matrix(0.26039022,0,0,0.29542588,90.049486,1059.1584)"
       inkscape:export-filename="/home/sr/git/gps-chase_app/gps-chase_app/res/drawable/ic_cp_done_first_selected.png"
       inkscape:export-xdpi="350"
       inkscape:export-ydpi="350" />
    <path
       id="path2985-9-4-1"
       style="fill:#99cc00;fill-opacity:1;stroke:#669900;stroke-width:0.40000001;stroke-linecap:round;stroke-linejoin:round;stroke-miterlimit:4;stroke-opacity:1;stroke-dasharray:none"
       d="m 85.049318,1070.8524 1.090053,-4.9777 c 0.112279,-0.786 1.707595,-0.1147 1.833905,-1.048 0,0 0.52398,-3.1438 0.26199,-3.4058 -0.26199,-0.786 -2.357882,-0.786 -3.185948,-0.786 m -0.0032,10.2186 -1.090053,-4.9777 c -0.11228,-0.786 -1.707594,-0.1146 -1.833909,-1.048 0,0 -0.523974,-3.1438 -0.261987,-3.4058 0.261987,-0.786 2.357883,-0.786 3.185949,-0.786"
       inkscape:export-filename="/home/sr/git/ch.gpschase/GPS chase - App/res/drawable-mdpi/ic_cp_done_first_normal.png"
       inkscape:export-xdpi="350"
       inkscape:export-ydpi="350"
       inkscape:connector-curvature="0" />
    <path
       sodipodi:type="arc"
       style="fill:#669900;fill-opacity:1;stroke:none"
       id="path3998-4-9"
       sodipodi:cx="13"
       sodipodi:cy="13"
       sodipodi:rx="5.1781416"
       sodipodi:ry="4.4745998"
       d="M 18.178142,13 A 5.1781416,4.4745998 0 1 1 7.8218584,13 5.1781416,4.4745998 0 1 1 18.178142,13 z"
       transform="matrix(0.26039022,0,0,0.29542588,81.662645,1059.1584)"
       inkscape:export-filename="/home/sr/git/ch.gpschase/GPS chase - App/res/drawable-mdpi/ic_cp_done_first_normal.png"
       inkscape:export-xdpi="350"
       inkscape:export-ydpi="350" />
    <path
       style="fill:none;stroke:#9933cc;stroke-width:0.80000001;stroke-linecap:round;stroke-linejoin:miter;stroke-miterlimit:4;stroke-opacity:1;stroke-dasharray:none"
       d="m 100.54969,978.98243 c 1.75873,-0.1365 4.8877,-3.4934 6.7627,-4.2434 2.27194,-0.6396 4.35225,-1.5166 5.31373,-1.7384 1.20694,-0.5258 2.46359,-0.8017 2.46359,-0.8017"
       id="path3970-3-4-2"
       inkscape:connector-curvature="0"
       sodipodi:nodetypes="cccc"
       inkscape:export-filename="/home/sr/Desktop/logo_highres.png"
       inkscape:export-xdpi="2161.9187"
       inkscape:export-ydpi="2161.9187" />
    <path
       id="path2985-9-6-1-8-8"
       style="fill:#aa66cc;fill-opacity:1;stroke:#9933cc;stroke-width:0.35758829;stroke-linecap:round;stroke-linejoin:round;stroke-miterlimit:4;stroke-opacity:1;stroke-dasharray:none"
       d="m 100.73595,978.88783 1.10007,-5.0235 c 0.11328,-0.7931 1.72327,-0.1157 1.85075,-1.0575 0,0 0.52878,-3.1729 0.26438,-3.4372 -0.26438,-0.7931 -2.37953,-0.7931 -3.2152,-0.7931 m -0.003,10.3125 -1.100056,-5.0236 c -0.113284,-0.7932 -1.723278,-0.1156 -1.850751,-1.0575 0,0 -0.528784,-3.1728 -0.264398,-3.4371 0.264398,-0.7932 2.379536,-0.7932 3.215205,-0.7932"
       inkscape:export-filename="/home/sr/Desktop/logo_highres.png"
       inkscape:export-xdpi="2161.9187"
       inkscape:export-ydpi="2161.9187"
       inkscape:connector-curvature="0" />
    <path
       id="path2985-9-6-1-8-3-3"
       style="fill:#aa66cc;fill-opacity:1;stroke:#9933cc;stroke-width:0.2707012;stroke-linecap:round;stroke-linejoin:round;stroke-miterlimit:4;stroke-opacity:1;stroke-dasharray:none"
       d="m 107.41237,974.90793 0.83277,-3.8029 c 0.0857,-0.6004 1.30455,-0.088 1.40105,-0.8006 0,0 0.40031,-2.402 0.20015,-2.602 -0.20015,-0.6004 -1.80135,-0.6004 -2.43397,-0.6004 m -0.002,7.8068 -0.83276,-3.8029 c -0.0858,-0.6006 -1.30456,-0.088 -1.40105,-0.8006 0,0 -0.40031,-2.4019 -0.20016,-2.6019 0.20016,-0.6007 1.80136,-0.6007 2.43397,-0.6007"
       inkscape:export-filename="/home/sr/Desktop/logo_highres.png"
       inkscape:export-xdpi="2161.9187"
       inkscape:export-ydpi="2161.9187"
       inkscape:connector-curvature="0" />
    <path
       id="path2985-9-6-1-8-7-5"
       style="fill:#aa66cc;fill-opacity:1;stroke:#9933cc;stroke-width:0.20335637;stroke-linecap:round;stroke-linejoin:round;stroke-miterlimit:4;stroke-opacity:1;stroke-dasharray:none"
       d="m 112.64409,972.95793 0.62559,-2.8568 c 0.0644,-0.451 0.98001,-0.066 1.0525,-0.6014 0,0 0.30072,-1.8044 0.15035,-1.9547 -0.15035,-0.451 -1.35321,-0.451 -1.82844,-0.451 m -0.002,5.8646 -0.62559,-2.8569 c -0.0644,-0.4511 -0.98001,-0.066 -1.0525,-0.6013 0,0 -0.30072,-1.8043 -0.15036,-1.9547 0.15036,-0.4511 1.35321,-0.4511 1.82845,-0.4511"
       inkscape:export-filename="/home/sr/Desktop/logo_highres.png"
       inkscape:export-xdpi="2161.9187"
       inkscape:export-ydpi="2161.9187"
       inkscape:connector-curvature="0" />
    <path
       id="path2985-9-61-8"
       style="fill:#aa66cc;fill-opacity:0.26666667;stroke:#9933cc;stroke-width:0.40000001;stroke-linecap:round;stroke-linejoin:round;stroke-miterlimit:4;stroke-opacity:1;stroke-dasharray:none;stroke-dashoffset:0"
       d="m 84.714137,1056.8524 1.09005,-4.9777 c 0.11228,-0.786 1.70759,-0.1147 1.83391,-1.048 0,0 0.52397,-3.1438 0.26199,-3.4058 -0.26199,-0.786 -2.35789,-0.786 -3.18595,-0.786 m -0.003,10.2186 -1.09006,-4.9777 c -0.11228,-0.786 -1.70759,-0.1146 -1.83391,-1.0479 0,0 -0.52397,-3.1439 -0.26198,-3.4059 0.26198,-0.786 2.35788,-0.786 3.18595,-0.786"
       inkscape:export-filename="/home/sr/git/gps-chase_app/gps-chase_app/res/drawable/ic_cp_neutral_hidden_normal.png"
       inkscape:export-xdpi="350"
       inkscape:export-ydpi="350"
       inkscape:connector-curvature="0" />
    <path
       id="path2985-9-1-8"
       style="fill:#aa66cc;fill-opacity:0.26666667;stroke:none"
       d="m 93.896337,1057.0399 1.09005,-4.9778 c 0.11228,-0.786 1.70759,-0.1146 1.83391,-1.0479 0,0 0.52397,-3.1439 0.26199,-3.4059 -0.26199,-0.7859 -2.35789,-0.7859 -3.18595,-0.7859 m -0.003,10.2186 -1.09006,-4.9778 c -0.11228,-0.7859 -1.70759,-0.1146 -1.8339,-1.0479 0,0 -0.52398,-3.1439 -0.26199,-3.4058 0.26199,-0.786 2.35788,-0.786 3.18595,-0.786"
       inkscape:export-filename="/home/sr/git/gps-chase_app/gps-chase_app/res/drawable/ic_cp_neutral_hidden_selected.png"
       inkscape:export-xdpi="350"
       inkscape:export-ydpi="350"
       inkscape:connector-curvature="0" />
    <path
       id="path2985-9-9-8"
       style="fill:#0099cc;fill-opacity:0.26666667;stroke:#0099cc;stroke-width:0.60000002;stroke-linecap:round;stroke-linejoin:round;stroke-miterlimit:4;stroke-opacity:1;stroke-dasharray:none"
       d="m 93.912277,1056.9319 1.09006,-4.9778 c 0.11228,-0.786 1.70759,-0.1146 1.83391,-1.0479 0,0 0.52397,-3.1439 0.26198,-3.4059 -0.26198,-0.7859 -2.35788,-0.7859 -3.18595,-0.7859 m -0.003,10.2186 -1.09005,-4.9778 c -0.11228,-0.7859 -1.70759,-0.1146 -1.83391,-1.0479 0,0 -0.52397,-3.1439 -0.26199,-3.4058 0.26199,-0.786 2.35789,-0.786 3.18595,-0.786"
       inkscape:export-filename="/home/sr/git/gps-chase_app/gps-chase_app/res/drawable/ic_cp_neutral_hidden_selected.png"
       inkscape:export-xdpi="350"
       inkscape:export-ydpi="350"
       inkscape:connector-curvature="0" />
    <path
       id="path2985-9-9-8-3"
       style="fill:#0099cc;fill-opacity:0.26666667;stroke:#0099cc;stroke-width:0.60000002;stroke-linecap:round;stroke-linejoin:round;stroke-miterlimit:4;stroke-opacity:1;stroke-dasharray:none"
       d="m 94.352917,1044.5236 1.09006,-4.9778 c 0.11228,-0.786 1.70759,-0.1146 1.83391,-1.0479 0,0 0.52397,-3.1439 0.26198,-3.4059 -0.26198,-0.7859 -2.35788,-0.7859 -3.18595,-0.7859 m -0.003,10.2186 -1.09005,-4.9778 c -0.11228,-0.7859 -1.70759,-0.1146 -1.83391,-1.0479 0,0 -0.52397,-3.1439 -0.26198,-3.4058 0.26198,-0.786 2.35788,-0.786 3.18594,-0.786"
       inkscape:export-filename="/home/sr/git/gps-chase_app/gps-chase_app/res/drawable/ic_cp_neutral_other_selected.png"
       inkscape:export-xdpi="350"
       inkscape:export-ydpi="350"
       inkscape:connector-curvature="0" />
    <path
       id="path2985-9-9-8-8"
       style="fill:#0099cc;fill-opacity:0.26666667;stroke:#0099cc;stroke-width:0.60000002;stroke-linecap:round;stroke-linejoin:round;stroke-miterlimit:4;stroke-opacity:1;stroke-dasharray:none"
       d="m 94.564117,1031.3026 1.090053,-4.9778 c 0.112279,-0.786 1.707593,-0.1146 1.833909,-1.0479 0,0 0.523974,-3.1439 0.261987,-3.4059 -0.261987,-0.7859 -2.357883,-0.7859 -3.185949,-0.7859 m -0.0032,10.2186 -1.090053,-4.9778 c -0.11228,-0.7859 -1.707594,-0.1146 -1.833909,-1.0479 0,0 -0.523974,-3.1439 -0.261987,-3.4058 0.261987,-0.786 2.357883,-0.786 3.185949,-0.786"
       inkscape:export-filename="/home/sr/git/gps-chase_app/gps-chase_app/res/drawable/ic_cp_neutral_first_selected.png"
       inkscape:export-xdpi="350"
       inkscape:export-ydpi="350"
       inkscape:connector-curvature="0" />
    <path
       id="path2985-9-9-8-0"
       style="fill:#0099cc;fill-opacity:0.26666667;stroke:#0099cc;stroke-width:0.60000002;stroke-linecap:round;stroke-linejoin:round;stroke-miterlimit:4;stroke-opacity:1;stroke-dasharray:none"
       d="m 93.510739,1070.4149 1.090053,-4.9778 c 0.112279,-0.786 1.707593,-0.1146 1.833909,-1.0479 0,0 0.523974,-3.1439 0.261987,-3.4059 -0.261987,-0.7859 -2.357883,-0.7859 -3.185949,-0.7859 m -0.0032,10.2186 -1.090053,-4.9778 c -0.11228,-0.7859 -1.707594,-0.1146 -1.833909,-1.0479 0,0 -0.523974,-3.1439 -0.261987,-3.4058 0.261987,-0.786 2.357883,-0.786 3.185949,-0.786"
       inkscape:export-filename="/home/sr/git/gps-chase_app/gps-chase_app/res/drawable/ic_cp_done_first_selected.png"
       inkscape:export-xdpi="350"
       inkscape:export-ydpi="350"
       inkscape:connector-curvature="0" />
    <path
       id="path2985-9-9-8-0-6"
       style="fill:#0099cc;fill-opacity:0.26666667;stroke:#0099cc;stroke-width:0.60000002;stroke-linecap:round;stroke-linejoin:round;stroke-miterlimit:4;stroke-opacity:1;stroke-dasharray:none"
       d="m 94.198239,1083.6024 1.090053,-4.9778 c 0.112279,-0.786 1.707593,-0.1146 1.833909,-1.0479 0,0 0.523974,-3.1439 0.261987,-3.4059 -0.261987,-0.7859 -2.357883,-0.7859 -3.185949,-0.7859 m -0.0032,10.2186 -1.090053,-4.9778 c -0.11228,-0.7859 -1.707594,-0.1146 -1.833909,-1.0479 0,0 -0.523974,-3.1439 -0.261987,-3.4058 0.261987,-0.786 2.357883,-0.786 3.185949,-0.786"
       inkscape:export-filename="/home/sr/git/gps-chase_app/gps-chase_app/res/drawable/ic_cp_done_other_selected.png"
       inkscape:export-xdpi="350"
       inkscape:export-ydpi="350"
       inkscape:connector-curvature="0" />
    <path
       id="path2985-9-61-3"
       style="opacity:0.59999999999999998;fill:#1f1f1f;stroke:#1f1f1f;stroke-width:1.98298525999999997;stroke-linecap:round;stroke-linejoin:round;stroke-miterlimit:4;stroke-opacity:1;stroke-dasharray:none;fill-opacity:1"
       d="m 32.047065,1043.2505 3.334228,-15.2258 c 0.343441,-2.4043 5.223151,-0.3506 5.609537,-3.2057 0,0 1.602713,-9.6159 0.801371,-10.4173 -0.801371,-2.4042 -7.212278,-2.4042 -9.745136,-2.4042 m -0.0091,31.2565 -3.334261,-15.2256 c -0.34344,-2.4042 -5.22315,-0.3506 -5.609535,-3.2054 0,0 -1.602713,-9.6165 -0.801342,-10.4179 0.801342,-2.4042 7.212249,-2.4042 9.745138,-2.4042"
       inkscape:export-filename="/home/sr/git/ch.gpschase/GPS chase - App/res/drawable-mdpi/ic_cp_neutral_other_normal.png"
       inkscape:export-xdpi="350"
       inkscape:export-ydpi="350"
       inkscape:connector-curvature="0" />
  </g>
</svg>
